<svg xmlns="http://www.w3.org/2000/svg" viewBox="0 0 300 300">
  <g transform="translate(0, 300) scale(1, -1)">
    <path d="M300 269L300 269L300 0L163 0L163 13L288 13L288 269Q288 277 282.50 282.50Q277 288 269 288L269 288L106 288Q98 288 93 282.50Q88 277 88 269L88 269L88 171Q81 174 75 174L75 174L75 269Q75 282 84 291Q93 300 106 300L106 300L269 300Q282 300 291 291Q300 282 300 269ZM250 238L250 250L125 250L125 238L250 238ZM125 200L125 188L250 188L250 200L125 200ZM125 150L125 138L225 138L225 150L125 150ZM212 113L213 113Q228 112 239 101.50Q250 91 250 75Q250 59 239 48Q228 37 212.50 37.50Q197 38 186 48.50Q175 59 175 75Q175 91 186 102Q197 113 212 113L212 113ZM213 100L213 100Q202 100 195 92.50Q188 85 187.50 75Q187 65 194.50 57.50Q202 50 212.50 50Q223 50 230.50 57.50Q238 65 237.50 75Q237 85 230 92.50Q223 100 213 100ZM125 37L125 13L138 13L138 0L0 0L0 13L13 13L13 38Q12 48 19.50 55Q27 62 37 62L37 62L55 62Q38 108 38 120Q38 132 47 141Q56 150 69 150Q82 150 91 141Q100 132 100 120Q100 108 83 63L83 63L100 63Q110 63 117.50 55.50Q125 48 125 37L125 37ZM68 62L68 63L69 63Q87 110 87.50 118.50Q88 127 82.50 132.50Q77 138 69 137.50Q61 137 55.50 132Q50 127 50 118.50Q50 110 68 62L68 62ZM25 38L25 13L113 13L113 38Q113 43 109 46.50Q105 50 100 50L100 50L38 50Q32 50 28.50 46.50Q25 43 25 38L25 38Z" fill="currentColor" />
  </g>
</svg>