<svg xmlns="http://www.w3.org/2000/svg" viewBox="0 0 300 300">
  <g transform="translate(0, 300) scale(1, -1)">
    <path d="M269 300L269 300L131 300Q118 300 109 291Q100 282 100 269L100 269L100 125L176 125Q176 132 178 138L178 138L116 138L200 210L225 185L287 247L287 172Q295 169 300 165L300 165L300 269Q300 282 291 291Q282 300 269 300ZM288 265L225 203L200 227L113 151L113 269Q113 277 118 282.50Q123 288 131 288L131 288L269 288Q277 288 282.50 282.50Q288 277 288 269L288 269L288 265ZM162 250L163 250Q163 245 159 241.50Q155 238 150 237.50Q145 237 141.50 241Q138 245 138 250Q138 255 141.50 259Q145 263 150 263Q155 263 159 259Q163 255 162 250L162 250ZM269 150L269 150L231 150Q218 150 209 141Q200 132 200 119L200 119L200 56Q192 63 181 63L181 63Q168 63 159 53.50Q150 44 150 31Q150 18 159 9Q168 0 181 0Q194 0 203.50 9Q213 18 213 31L213 31L213 119Q213 127 218 132.50Q223 138 231 137L231 137L269 137Q277 137 282.50 132Q288 127 288 119L288 119L288 56Q279 63 269 63L269 63Q256 63 247 53.50Q238 44 238 31Q238 18 247 9Q256 0 269 0Q282 0 291 9Q300 18 300 31L300 31L300 119Q300 132 291 141Q282 150 269 150ZM181 13L181 13Q173 13 168 18Q163 23 163 31Q163 39 168 44.50Q173 50 181 50Q189 50 194.50 44.50Q200 39 200 31Q200 23 194.50 17.50Q189 12 181 13ZM269 13L269 13Q261 13 255.50 18Q250 23 250 31Q250 39 255.50 44.50Q261 50 269 50Q277 50 282.50 44.50Q288 39 288 31Q288 23 282.50 18Q277 13 269 13ZM128 13L63 13L63 175L75 175L75 188L50 188L50 150L13 150L13 188L0 188L0 0L13 0L13 38L50 38L50 0L135 0Q131 5 128 13L128 13ZM13 138L50 138L50 100L13 100L13 138ZM50 50L13 50L13 88L50 88L50 50Z" fill="currentColor" />
  </g>
</svg>